<?xml version="1.0" encoding="utf-8"?>
<!-- Generator: Adobe Illustrator 27.0.0, SVG Export Plug-In . SVG Version: 6.00 Build 0)  -->
<svg version="1.1" id="Layer_1" xmlns="http://www.w3.org/2000/svg" xmlns:xlink="http://www.w3.org/1999/xlink" x="0px" y="0px"
	 viewBox="0 0 581.1 194.5" style="enable-background:new 0 0 581.1 194.5;" xml:space="preserve">
<style type="text/css">
	.st0{fill:#4F4C4C;}
	.st1{clip-path:url(#SVGID_00000125597284531768639450000008416077101150080441_);}
	.st2{fill:#F14624;}
	.st3{clip-path:url(#SVGID_00000009587500348632589720000004540393574757740472_);}
	.st4{fill:#98198E;}
	.st5{fill:#51ADE5;}
	.st6{fill:#85C536;}
	.st7{clip-path:url(#SVGID_00000035520895382558536940000015715356831019870644_);}
	.st8{fill:#F8BD0A;}
	.st9{clip-path:url(#SVGID_00000129172265205439527960000006666244425222363024_);}
	.st10{clip-path:url(#SVGID_00000040569901745262519790000009856935261781762232_);}
	.st11{fill:#FFFFFF;}
	.st12{fill:#808080;stroke:#808080;stroke-width:5;stroke-miterlimit:10;}
	.st13{clip-path:url(#SVGID_00000000933058361340750430000018364844864189308085_);}
	.st14{clip-path:url(#SVGID_00000163032093256825582320000016738526926383765436_);}
	.st15{fill:url(#SVGID_00000001663362056067149420000010484575141396034202_);}
	.st16{clip-path:url(#SVGID_00000051382143817346519930000018112385749533057713_);}
	.st17{clip-path:url(#SVGID_00000142156930556971222230000017099814531897083555_);}
	.st18{clip-path:url(#SVGID_00000120553147705830430150000006320563060327081900_);}
	.st19{clip-path:url(#SVGID_00000034791535350091267760000007740609829476673700_);}
	.st20{fill:#2C3892;}
	.st21{fill:#808080;}
	.st22{font-family:'Arial-Black';}
	.st23{font-size:167px;}
</style>
<g>
	<path class="st0" d="M505.5,135c3.2-0.8,5.2-3.9,4.4-7.2c-0.8-3.2-3.9-5.2-7.2-4.4c-3.2,0.8-5.2,3.9-4.4,7.2
		C499.2,133.7,502.3,135.7,505.5,135"/>
	<g>
		<g>
			<g>
				<defs>
					<rect id="SVGID_1_" x="492.9" y="82.8" width="50" height="57.5"/>
				</defs>
				<clipPath id="SVGID_00000155126497710369328770000011909394645303814568_">
					<use xlink:href="#SVGID_1_"  style="overflow:visible;"/>
				</clipPath>
				<g style="clip-path:url(#SVGID_00000155126497710369328770000011909394645303814568_);">
					<path class="st0" d="M542.7,87.5c0-1.5-0.2-3.1-0.5-4.5c-1.9,11.8-12.2,18.9-24.3,21c-16.8,3-24.9,11.7-24.7,25.6
						c0,1.5,2.5-5.4,7.8-9.4c12.6-8,13.9,20,13.9,20c1.2-4.3,5-22.7,15.8-30.8C537.5,104.2,542.9,96.7,542.7,87.5"/>
				</g>
			</g>
		</g>
	</g>
	<path class="st2" d="M468.4,85.8c1.6,2.9,5.2,3.6,8,1.9c2.8-1.8,3.7-5.6,2.1-8.4c-1.6-2.9-5.2-3.6-8-1.9
		C467.8,79.2,466.8,83,468.4,85.8"/>
	<g>
		<g>
			<g>
				<defs>
					<rect id="SVGID_00000118399248272283854440000014436530178531756188_" x="466.1" y="70" width="61.5" height="37.6"/>
				</defs>
				<clipPath id="SVGID_00000106140010002820857720000012131529536779170736_">
					<use xlink:href="#SVGID_00000118399248272283854440000014436530178531756188_"  style="overflow:visible;"/>
				</clipPath>
				<g style="clip-path:url(#SVGID_00000106140010002820857720000012131529536779170736_);">
					<path class="st2" d="M523.4,105.9c1.4-0.6,2.8-1.2,4.1-2C516,106,506.5,98.5,501,87.4c-7.6-15.2-18-20.2-30.9-15.3
						c-1.4,0.6,5.7,0.6,11,4.4c11,9.7-14.8,20.1-14.8,20.1c4.3-0.2,22.6-2.8,33.3,5C506.3,106.5,514.8,109.2,523.4,105.9"/>
				</g>
			</g>
		</g>
	</g>
	<path class="st4" d="M503.9,33.5c-2.2,2.5-2,6.2,0.5,8.3c2.5,2.1,6.2,1.7,8.4-0.8s2-6.2-0.5-8.3C509.8,30.6,506.1,31,503.9,33.5"/>
	<path class="st4" d="M500.7,93.4c1,1.2,1.9,2.3,3,3.3c-5.2-10.4-0.9-22.3,8-31.2c12.1-12.4,13.8-24.1,5.6-35.1
		c-1-1.2,1.1,5.7-1,12.1c-5.8,13.9-23.1-7.6-23.1-7.6c1.4,4.1,9,21,4.8,33.9C495.3,77,495.2,86.1,500.7,93.4"/>
	<path class="st5" d="M563,50.3c-3-1.2-6.4,0.2-7.7,3.3c-1.2,3.1,0.2,6.6,3.2,8c3,1.2,6.4-0.2,7.7-3.3C567.3,55.1,566,51.5,563,50.3
		"/>
	<path class="st5" d="M506,67.2c-0.9,1.2-1.6,2.7-2.2,4c8.3-8.5,20.6-8.2,31.5-2.8c15,7.6,26.5,5.3,34.4-6.3c0.9-1.2-5.1,3-11.6,3.1
		c-14.7-1.1,0.6-24.9,0.6-24.9c-3.4,2.8-17.1,15.7-30.4,16C519.8,56.5,511.2,59.5,506,67.2"/>
	<path class="st6" d="M564,113c0.4-3.4-2-6.1-5.3-6.3c-3.3-0.2-6.1,2.4-6.5,5.7c-0.4,3.4,2,6.1,5.3,6.3S563.7,116.4,564,113"/>
	<g>
		<g>
			<g>
				<defs>
					<rect id="SVGID_00000065069915795288302370000001747062922249142410_" x="527.4" y="62.7" width="44.5" height="60.7"/>
				</defs>
				<clipPath id="SVGID_00000088817394136825898140000007903434420906998203_">
					<use xlink:href="#SVGID_00000065069915795288302370000001747062922249142410_"  style="overflow:visible;"/>
				</clipPath>
				<g style="clip-path:url(#SVGID_00000088817394136825898140000007903434420906998203_);">
					<path class="st6" d="M532,63.6c-1.4-0.4-3-0.7-4.4-0.8c10.3,5.2,13.6,17.1,11.6,29.5c-2.8,17.1,2.6,27.5,15.7,31.1
						c1.4,0.4-4.2-3.9-6.2-10.2c-3.2-14.6,23.5-7.8,23.5-7.8c-3.5-2.4-19.5-11.3-23.6-24C545.9,73.4,540.7,66,532,63.6"/>
				</g>
			</g>
		</g>
	</g>
	<path class="st8" d="M505.5,135.1c3.2-0.8,5.2-3.9,4.4-7.2c-0.8-3.2-3.9-5.2-7.2-4.4c-3.2,0.8-5.2,3.9-4.4,7.2
		C499.2,133.9,502.3,135.8,505.5,135.1"/>
	<g>
		<g>
			<g>
				<defs>
					<rect id="SVGID_00000057869424600879484520000011212911447187561858_" x="493.2" y="82.9" width="49.7" height="57.4"/>
				</defs>
				<clipPath id="SVGID_00000065049336484740101070000011913384702543902877_">
					<use xlink:href="#SVGID_00000057869424600879484520000011212911447187561858_"  style="overflow:visible;"/>
				</clipPath>
				<g style="clip-path:url(#SVGID_00000065049336484740101070000011913384702543902877_);">
					<path class="st8" d="M542.8,87.5c0-1.5-0.2-3.1-0.5-4.5c-1.9,11.8-12.3,18.9-24.4,21.1c-16.8,3-25,11.7-24.7,25.6
						c0,1.5,2.5-5.4,7.8-9.4c12.7-8,13.9,20.1,13.9,20.1c1.2-4.3,5-22.7,15.8-30.8C537.6,104.3,543,96.7,542.8,87.5"/>
				</g>
			</g>
		</g>
	</g>
	<g>
		<g>
			<g>
				<defs>
					<rect id="SVGID_00000183226880282012116840000015746716623059363477_" x="494" y="56.8" width="54.1" height="54.1"/>
				</defs>
				<clipPath id="SVGID_00000145767984437584043070000014200013816339437742_">
					<use xlink:href="#SVGID_00000183226880282012116840000015746716623059363477_"  style="overflow:visible;"/>
				</clipPath>
				<g style="clip-path:url(#SVGID_00000145767984437584043070000014200013816339437742_);">
					<path class="st11" d="M521.1,56.8C506.2,56.8,494,69,494,83.9s12.2,27.1,27.1,27.1c14.9,0,27.1-12.2,27.1-27.1
						S536.1,56.8,521.1,56.8"/>
				</g>
			</g>
		</g>
	</g>
	<g>
		<g>
			<g>
				<path class="st12" d="M521.1,141.4c-31.7,0-57.5-25.8-57.5-57.5s25.8-57.5,57.5-57.5c31.7,0,57.5,25.8,57.5,57.5
					S552.8,141.4,521.1,141.4z M521.1,27.3c-31.2,0-56.6,25.4-56.6,56.6s25.4,56.6,56.6,56.6c31.2,0,56.6-25.4,56.6-56.6
					S552.4,27.3,521.1,27.3z"/>
			</g>
		</g>
	</g>
	<g>
		<g>
			<g>
				<defs>
					<rect id="SVGID_00000125594002052191334960000002271860079931701901_" x="494" y="56.8" width="54.1" height="53.9"/>
				</defs>
				<clipPath id="SVGID_00000128459585446139168080000006673981517957516467_">
					<use xlink:href="#SVGID_00000125594002052191334960000002271860079931701901_"  style="overflow:visible;"/>
				</clipPath>
				<g style="clip-path:url(#SVGID_00000128459585446139168080000006673981517957516467_);">
					<g>
						<g>
							<g>
								<defs>
									<path id="SVGID_00000047780500913369146930000011839843424298049418_" d="M507.6,74.8l-8.5,3.6c0.1-7.2,2.6-13.5,7.2-17.2
										c-0.3,1.8-0.3,4,0.1,6.8C506.5,70.1,506.9,72.4,507.6,74.8z M537.5,62c-3.5-2.7-7.8-4.5-12.4-5.2c3.4,1.4,6.6,3.6,9.5,6.4
										L537.5,62z M521.1,69c-4.3-6.8-8.3-10.3-10.4-10.3c-0.1,0-0.2,0-0.2,0c-0.3,0.1-0.5,0.2-0.8,0.3c-1.5,1.3-1.8,6.8,0.2,14.8
										L521.1,69z M501.5,91.5l10.3-4.4c-1.3-3.4-2.6-6.6-3.4-9.8l-9.1,3.9C499.4,84.6,500.1,88,501.5,91.5z M519.5,62.2
										c1.3,1.6,2.7,3.5,4,5.7l8.5-3.6c-4.7-4.3-10.3-6.9-15.6-6.9c-0.7,0-1.2,0-1.9,0.1C516.1,58.6,517.8,60.2,519.5,62.2z
										 M508.3,102.6l9.1-3.9c-1.6-2.9-3.3-5.9-4.7-9.3l-10.3,4.4C504.1,97.1,506,100.1,508.3,102.6z M534,66.3l-9.1,3.9
										c1.6,2.9,3.3,5.9,4.7,9.3l10.3-4.4C538.2,71.7,536.3,68.8,534,66.3z M542.1,74l3.7-1.6c-1.4-3.3-3.5-6.2-6.1-8.6l-3.3,1.3
										C538.7,67.8,540.6,70.8,542.1,74z M531.7,92.5c-0.9-3-2-6.2-3.4-9.8L515,88.4c1.5,3.4,3.2,6.6,4.7,9.2L531.7,92.5z
										 M522.5,71.2l-11.9,5.1c0.9,3,2,6.2,3.4,9.8l13.2-5.7C525.6,77,524.1,73.8,522.5,71.2z M522.8,106.6
										c-1.3-1.6-2.7-3.5-4-5.7l-8.5,3.6c3.3,3.1,6.9,5.2,10.6,6.2c0.1,0,0.2,0,0.3,0c1.7,0,3.4-0.2,5.2-0.5
										C525.2,109.3,524,108,522.8,106.6z M536,100.9c0.3,2,0.3,3.7,0.2,5.3c1.2-0.9,2.5-1.8,3.5-2.9c2.2-3.5,3.4-8,3.4-12.8
										l-8.5,3.6C535.3,96.4,535.7,98.7,536,100.9z M540.8,77.4l-10.3,4.4c1.3,3.4,2.6,6.6,3.4,9.8l9.1-3.9
										C542.9,84.3,542.1,80.8,540.8,77.4z M545.1,96.2c1.2-2.4,2.2-5,2.7-7.8l-2.1,0.9C545.7,91.7,545.6,94,545.1,96.2z
										 M546.7,74.8l-3.6,1.5c1.3,3.4,2.1,6.8,2.5,10.2l2.6-1.1c0-0.6,0.1-1.2,0.1-1.9C548.2,80.5,547.7,77.6,546.7,74.8z
										 M521,99.9c3.2,5,6.1,8.1,8.3,9.6c1.4-0.5,2.8-1.1,4.1-1.7c0.6-2.6,0.3-7-1.1-12.7L521,99.9z M497.8,69.7
										c-1.9,3.3-3.3,6.9-3.6,10.8l2.3-1C496.5,76,496.9,72.8,497.8,69.7z M497.1,96.1c1.7,3.3,3.9,6,6.7,8.3l2-0.9
										c-2.2-2.6-4.1-5.6-5.7-8.8L497.1,96.1z M496.7,82.3l-2.6,1.1c0,0.1,0,0.1,0,0.2c0,3.6,0.7,7.1,2,10.2l3.1-1.3
										C497.8,89.1,497,85.6,496.7,82.3z M506.2,106.2c1.7,1.1,3.5,2.1,5.6,2.8c-1.4-1-2.8-2.1-4-3.4L506.2,106.2z"/>
								</defs>
								<clipPath id="SVGID_00000136383826886498841530000013693401150462320775_">
									<use xlink:href="#SVGID_00000047780500913369146930000011839843424298049418_"  style="overflow:visible;"/>
								</clipPath>
								<g style="clip-path:url(#SVGID_00000136383826886498841530000013693401150462320775_);">
									
										<linearGradient id="SVGID_00000183221752977629144470000014566885693029683075_" gradientUnits="userSpaceOnUse" x1="702.1863" y1="-535.4374" x2="765.7862" y2="-535.4374" gradientTransform="matrix(0.8511 0 0 -0.8521 -103.6172 -372.4906)">
										<stop  offset="0" style="stop-color:#E7D49E"/>
										<stop  offset="7.812500e-03" style="stop-color:#E7D49E"/>
										<stop  offset="1.562500e-02" style="stop-color:#E7D39D"/>
										<stop  offset="2.343750e-02" style="stop-color:#E7D39D"/>
										<stop  offset="3.125000e-02" style="stop-color:#E7D39C"/>
										<stop  offset="3.906250e-02" style="stop-color:#E6D39C"/>
										<stop  offset="4.687500e-02" style="stop-color:#E6D29B"/>
										<stop  offset="5.468750e-02" style="stop-color:#E6D29B"/>
										<stop  offset="6.250000e-02" style="stop-color:#E6D29A"/>
										<stop  offset="7.031250e-02" style="stop-color:#E6D19A"/>
										<stop  offset="7.812500e-02" style="stop-color:#E6D199"/>
										<stop  offset="8.593750e-02" style="stop-color:#E6D199"/>
										<stop  offset="9.375000e-02" style="stop-color:#E6D098"/>
										<stop  offset="0.1016" style="stop-color:#E6D098"/>
										<stop  offset="0.1094" style="stop-color:#E5D097"/>
										<stop  offset="0.1172" style="stop-color:#E5D097"/>
										<stop  offset="0.125" style="stop-color:#E5CF96"/>
										<stop  offset="0.1328" style="stop-color:#E5CF96"/>
										<stop  offset="0.1406" style="stop-color:#E5CF95"/>
										<stop  offset="0.1484" style="stop-color:#E5CE95"/>
										<stop  offset="0.1562" style="stop-color:#E5CE94"/>
										<stop  offset="0.1641" style="stop-color:#E5CE94"/>
										<stop  offset="0.1719" style="stop-color:#E5CE93"/>
										<stop  offset="0.1797" style="stop-color:#E4CD93"/>
										<stop  offset="0.1875" style="stop-color:#E4CD92"/>
										<stop  offset="0.1953" style="stop-color:#E4CD92"/>
										<stop  offset="0.2031" style="stop-color:#E4CC91"/>
										<stop  offset="0.2109" style="stop-color:#E4CC91"/>
										<stop  offset="0.2188" style="stop-color:#E4CC90"/>
										<stop  offset="0.2266" style="stop-color:#E4CB90"/>
										<stop  offset="0.2344" style="stop-color:#E4CB8F"/>
										<stop  offset="0.2422" style="stop-color:#E3CB8F"/>
										<stop  offset="0.25" style="stop-color:#E3CB8E"/>
										<stop  offset="0.2578" style="stop-color:#E3CA8E"/>
										<stop  offset="0.2656" style="stop-color:#E3CA8D"/>
										<stop  offset="0.2734" style="stop-color:#E3CA8D"/>
										<stop  offset="0.2812" style="stop-color:#E3C98C"/>
										<stop  offset="0.2891" style="stop-color:#E3C98C"/>
										<stop  offset="0.2969" style="stop-color:#E3C98B"/>
										<stop  offset="0.3047" style="stop-color:#E3C88B"/>
										<stop  offset="0.3125" style="stop-color:#E2C88A"/>
										<stop  offset="0.3203" style="stop-color:#E2C88A"/>
										<stop  offset="0.3281" style="stop-color:#E2C889"/>
										<stop  offset="0.3359" style="stop-color:#E2C789"/>
										<stop  offset="0.3438" style="stop-color:#E2C788"/>
										<stop  offset="0.3516" style="stop-color:#E2C788"/>
										<stop  offset="0.3594" style="stop-color:#E2C687"/>
										<stop  offset="0.3672" style="stop-color:#E2C687"/>
										<stop  offset="0.375" style="stop-color:#E1C686"/>
										<stop  offset="0.3828" style="stop-color:#E1C686"/>
										<stop  offset="0.3906" style="stop-color:#E1C585"/>
										<stop  offset="0.3984" style="stop-color:#E1C585"/>
										<stop  offset="0.4062" style="stop-color:#E1C584"/>
										<stop  offset="0.4141" style="stop-color:#E1C484"/>
										<stop  offset="0.4219" style="stop-color:#E1C483"/>
										<stop  offset="0.4297" style="stop-color:#E1C483"/>
										<stop  offset="0.4375" style="stop-color:#E1C382"/>
										<stop  offset="0.4453" style="stop-color:#E0C382"/>
										<stop  offset="0.4531" style="stop-color:#E0C381"/>
										<stop  offset="0.4609" style="stop-color:#E0C381"/>
										<stop  offset="0.4688" style="stop-color:#E0C280"/>
										<stop  offset="0.4766" style="stop-color:#E0C280"/>
										<stop  offset="0.4844" style="stop-color:#E0C27F"/>
										<stop  offset="0.4922" style="stop-color:#E0C17F"/>
										<stop  offset="0.5" style="stop-color:#E0C17E"/>
										<stop  offset="0.5078" style="stop-color:#DFC17E"/>
										<stop  offset="0.5156" style="stop-color:#DFC07D"/>
										<stop  offset="0.5234" style="stop-color:#DFC07D"/>
										<stop  offset="0.5312" style="stop-color:#DFC07C"/>
										<stop  offset="0.5391" style="stop-color:#DFC07C"/>
										<stop  offset="0.5469" style="stop-color:#DFBF7B"/>
										<stop  offset="0.5547" style="stop-color:#DFBF7B"/>
										<stop  offset="0.5625" style="stop-color:#DFBF7A"/>
										<stop  offset="0.5703" style="stop-color:#DFBE7A"/>
										<stop  offset="0.5781" style="stop-color:#DEBE79"/>
										<stop  offset="0.5859" style="stop-color:#DEBE79"/>
										<stop  offset="0.5938" style="stop-color:#DEBD78"/>
										<stop  offset="0.6016" style="stop-color:#DEBD78"/>
										<stop  offset="0.6094" style="stop-color:#DEBD77"/>
										<stop  offset="0.6172" style="stop-color:#DEBD77"/>
										<stop  offset="0.625" style="stop-color:#DEBC76"/>
										<stop  offset="0.6328" style="stop-color:#DEBC76"/>
										<stop  offset="0.6406" style="stop-color:#DDBC75"/>
										<stop  offset="0.6484" style="stop-color:#DDBB75"/>
										<stop  offset="0.6562" style="stop-color:#DDBB74"/>
										<stop  offset="0.6641" style="stop-color:#DDBB74"/>
										<stop  offset="0.6719" style="stop-color:#DDBB73"/>
										<stop  offset="0.6797" style="stop-color:#DDBA73"/>
										<stop  offset="0.6875" style="stop-color:#DDBA72"/>
										<stop  offset="0.6953" style="stop-color:#DDBA72"/>
										<stop  offset="0.7031" style="stop-color:#DDB971"/>
										<stop  offset="0.7109" style="stop-color:#DCB971"/>
										<stop  offset="0.7188" style="stop-color:#DCB970"/>
										<stop  offset="0.7266" style="stop-color:#DCB870"/>
										<stop  offset="0.7344" style="stop-color:#DCB86F"/>
										<stop  offset="0.7422" style="stop-color:#DCB86F"/>
										<stop  offset="0.75" style="stop-color:#DCB86E"/>
										<stop  offset="0.7578" style="stop-color:#DCB76E"/>
										<stop  offset="0.7656" style="stop-color:#DCB76D"/>
										<stop  offset="0.7734" style="stop-color:#DBB76D"/>
										<stop  offset="0.7812" style="stop-color:#DBB66C"/>
										<stop  offset="0.7891" style="stop-color:#DBB66C"/>
										<stop  offset="0.7969" style="stop-color:#DBB66B"/>
										<stop  offset="0.8047" style="stop-color:#DBB56B"/>
										<stop  offset="0.8125" style="stop-color:#DBB56A"/>
										<stop  offset="0.8203" style="stop-color:#DBB56A"/>
										<stop  offset="0.8281" style="stop-color:#DBB569"/>
										<stop  offset="0.8359" style="stop-color:#DBB469"/>
										<stop  offset="0.8438" style="stop-color:#DAB468"/>
										<stop  offset="0.8516" style="stop-color:#DAB468"/>
										<stop  offset="0.8594" style="stop-color:#DAB367"/>
										<stop  offset="0.8672" style="stop-color:#DAB367"/>
										<stop  offset="0.875" style="stop-color:#DAB366"/>
										<stop  offset="0.8828" style="stop-color:#DAB366"/>
										<stop  offset="0.8906" style="stop-color:#DAB265"/>
										<stop  offset="0.8984" style="stop-color:#DAB265"/>
										<stop  offset="0.9062" style="stop-color:#D9B264"/>
										<stop  offset="0.9141" style="stop-color:#D9B164"/>
										<stop  offset="0.9219" style="stop-color:#D9B163"/>
										<stop  offset="0.9297" style="stop-color:#D9B163"/>
										<stop  offset="0.9375" style="stop-color:#D9B062"/>
										<stop  offset="0.9453" style="stop-color:#D9B062"/>
										<stop  offset="0.9531" style="stop-color:#D9B061"/>
										<stop  offset="0.9609" style="stop-color:#D9B061"/>
										<stop  offset="0.9688" style="stop-color:#D9AF60"/>
										<stop  offset="0.9766" style="stop-color:#D8AF60"/>
										<stop  offset="0.9844" style="stop-color:#D8AF5F"/>
										<stop  offset="0.9922" style="stop-color:#D8AE5F"/>
										<stop  offset="1" style="stop-color:#D8AE5E"/>
									</linearGradient>
									<path style="fill:url(#SVGID_00000183221752977629144470000014566885693029683075_);" d="M494,56.8v53.9h54.1V56.8H494z"/>
								</g>
							</g>
						</g>
					</g>
				</g>
			</g>
		</g>
	</g>
	<g>
		<g transform="matrix(1, 0, 0, 1, 82, 101)">
			<g>
				<g>
					<g>
						<defs>
							<rect id="SVGID_00000104706446180409082130000007684954685973772687_" x="406.2" y="-44.1" width="65.3" height="50"/>
						</defs>
						<clipPath id="SVGID_00000084495749757027010180000007811014698348514470_">
							<use xlink:href="#SVGID_00000104706446180409082130000007684954685973772687_"  style="overflow:visible;"/>
						</clipPath>
						<g style="clip-path:url(#SVGID_00000084495749757027010180000007811014698348514470_);">
							<g>
								<g>
									<g>
										<defs>
											<rect id="SVGID_00000074443338457461735880000004179995846021056146_" x="413.1" y="-39.7" width="54.1" height="41"/>
										</defs>
										<clipPath id="SVGID_00000060735612238271659380000003591618891709954705_">
											<use xlink:href="#SVGID_00000074443338457461735880000004179995846021056146_"  style="overflow:visible;"/>
										</clipPath>
										<g style="clip-path:url(#SVGID_00000060735612238271659380000003591618891709954705_);">
											<g>
												<g>
													<g>
														<defs>
															
																<rect id="SVGID_00000011029572418729471220000002160032531446030003_" x="411.4" y="-33.1" transform="matrix(0.9168 -0.3994 0.3994 0.9168 43.9535 173.5813)" width="54.1" height="28.8"/>
														</defs>
														<clipPath id="SVGID_00000117634870209287827280000011105922595513641406_">
															<use xlink:href="#SVGID_00000011029572418729471220000002160032531446030003_"  style="overflow:visible;"/>
														</clipPath>
														<g style="clip-path:url(#SVGID_00000117634870209287827280000011105922595513641406_);">
															<g>
																<g>
																	<g>
																		<defs>
																			
																				<rect id="SVGID_00000091708216751825315640000017453880053190183040_" x="416.7" y="-35" transform="matrix(0.9168 -0.3994 0.3994 0.9168 38.3599 177.8834)" width="58.6" height="63.8"/>
																		</defs>
																		<clipPath id="SVGID_00000167380485164340262590000015804071738096057992_">
																			<use xlink:href="#SVGID_00000091708216751825315640000017453880053190183040_"  style="overflow:visible;"/>
																		</clipPath>
																		<g style="clip-path:url(#SVGID_00000167380485164340262590000015804071738096057992_);">
																			<path class="st20" d="M415.1-2.7c0.4-0.1,0.7-0.5,0.6-1c-0.6-2.6-0.9-5.1-0.8-6.1c1,0.8,2.8,3.2,4.1,4.8
																				c3.8,4.9,5.4,6.6,6.7,6c1.6-0.8,0.9-4.1-1.8-13.6c-1.2-4.4-3.1-10.8-2.8-12.5c1.4,1,5.4,6,8,9.4
																				c6.5,8.3,7.9,9.8,9,9.2c1.6-0.7,1-3.1,0.3-5.4c-0.3-0.9-0.7-2.3-0.6-2.9l9.4-4.1c0.4-0.2,0.6-0.7,0.4-1.1
																				c-1.1-2.8-1.2-5.1-1-5.3c1,0.1,3.6,4.4,5.1,6.7c3,4.8,4.5,7.1,6,6.4c1.4-0.7,0.9-3.4-2.5-14.1
																				c-1.3-4.3-3.2-10-3.2-11.9c1.1,1,3.4,4.5,4.8,6.7c3.5,5.6,4.8,7.3,6,6.7l3.6-1.5c0.4-0.2,0.6-0.7,0.4-1.1
																				c-0.2-0.4-0.7-0.6-1.1-0.4l-3.4,1.5c-0.8-0.6-2.9-3.8-4.3-6c-3.7-5.9-5.5-8.2-7-7.6c-1.4,0.7-0.9,3.4,2.5,14.1
																				c1.3,4.3,3.1,10,3.2,11.8c-1-0.9-2.7-3.6-3.8-5.6c-3.2-5.1-5.2-8.1-7.1-7.4c-1.9,0.9-1,4.4-0.3,6.6l-8.8,3.8
																				c-1.3,0.6-0.8,2.5-0.2,4.7c0.3,1,0.8,2.7,0.7,3.3c-1.2-1-4.7-5.3-7.2-8.5c-6.6-8.4-8.5-10.6-10-10.1
																				c-1.8,0.8-0.9,4.6,1.9,14.6c1.1,4.2,2.8,10,2.6,11.6c-1-0.7-3.3-3.4-4.7-5.4c-3.6-4.6-4.9-6-6-5.5
																				c-0.4,0.2-1.7,0.8-0.1,8.1C414.2-2.9,414.6-2.6,415.1-2.7"/>
																		</g>
																	</g>
																</g>
															</g>
														</g>
													</g>
												</g>
											</g>
										</g>
									</g>
								</g>
							</g>
						</g>
					</g>
				</g>
			</g>
		</g>
	</g>
</g>
<text transform="matrix(1 0 0 1 2.441406e-04 143.2839)" class="st21 st22 st23">AVNI</text>
</svg>
