<?xml version="1.0" encoding="UTF-8"?>
<svg id="Layer_2" data-name="Layer 2" xmlns="http://www.w3.org/2000/svg" viewBox="0 0 592.1 493.28">
  <defs>
    <style>
      .cls-1 {
        font-size: 30px;
      }

      .cls-1, .cls-2 {
        fill: #fff;
      }

      .cls-1, .cls-2, .cls-3, .cls-4 {
        font-family: MyriadPro-Bold, 'Myriad Pro';
        font-weight: 700;
      }

      .cls-5 {
        letter-spacing: 0em;
      }

      .cls-6 {
        letter-spacing: -.01em;
      }

      .cls-7 {
        letter-spacing: 0em;
      }

      .cls-8 {
        letter-spacing: 0em;
      }

      .cls-9 {
        fill: #1c75bc;
      }

      .cls-10 {
        fill: #58595b;
      }

      .cls-11 {
        letter-spacing: 0em;
      }

      .cls-2 {
        font-size: 33px;
      }

      .cls-3 {
        font-size: 24px;
      }

      .cls-12 {
        letter-spacing: .02em;
      }

      .cls-13 {
        letter-spacing: .02em;
      }

      .cls-14 {
        letter-spacing: -.04em;
      }

      .cls-15 {
        letter-spacing: 0em;
      }

      .cls-16 {
        letter-spacing: -.04em;
      }

      .cls-17 {
        letter-spacing: -.02em;
      }

      .cls-18 {
        letter-spacing: -.02em;
      }

      .cls-19 {
        letter-spacing: -.02em;
      }

      .cls-20 {
        letter-spacing: -.01em;
      }

      .cls-21 {
        letter-spacing: 0em;
      }

      .cls-22 {
        letter-spacing: 0em;
      }

      .cls-23 {
        letter-spacing: -.01em;
      }

      .cls-24 {
        letter-spacing: 0em;
      }

      .cls-25 {
        letter-spacing: 0em;
      }

      .cls-4 {
        font-size: 21px;
      }

      .cls-26 {
        letter-spacing: 0em;
      }

      .cls-27 {
        letter-spacing: 0em;
      }
    </style>
  </defs>
  <g id="Layer_1-2" data-name="Layer 1">
    <g>
      <rect class="cls-9" x="119.41" width="348.11" height="78.22"/>
      <g>
        <g>
          <polygon class="cls-10" points="162.85 139.6 175.84 155.85 188.83 172.09 201.83 155.85 214.82 139.6 201.59 139.6 201.59 123.8 176.08 123.8 176.08 139.6 162.85 139.6"/>
          <rect class="cls-10" x="176.61" y="112.35" width="24.45" height="8.42"/>
          <rect class="cls-10" x="176.61" y="104.93" width="24.45" height="4.81"/>
        </g>
        <rect class="cls-10" x="176.56" y="98.34" width="24.45" height="3.24"/>
      </g>
      <rect class="cls-9" x="115.94" y="197.41" width="159.29" height="84.35"/>
      <rect class="cls-9" x="309.05" y="197.41" width="158.47" height="84.35"/>
      <rect class="cls-9" x="120.16" y="411.15" width="350.3" height="75.21"/>
      <g>
        <g>
          <polygon class="cls-10" points="361.84 347.67 374.84 363.91 387.83 380.16 400.83 363.91 413.82 347.67 400.59 347.67 400.59 331.87 375.08 331.87 375.08 347.67 361.84 347.67"/>
          <rect class="cls-10" x="375.61" y="320.42" width="24.45" height="8.42"/>
          <rect class="cls-10" x="375.61" y="312.99" width="24.45" height="4.81"/>
        </g>
        <rect class="cls-10" x="375.56" y="306.41" width="24.45" height="3.24"/>
      </g>
      <g>
        <g>
          <path class="cls-10" d="M97.71,121.52c-.02-1.41-.09-2.85-.06-4.25l.09-4.22,.26-8.59c.06-2.93,.36-5.73,.58-8.63l.78-8.76c.66-5.83,1.56-11.65,2.47-17.65,1.07-5.87,2.29-11.79,3.58-17.84-5.76,1.87-11.66,3.82-17.58,5.94-5.76,2.25-11.7,4.55-17.56,7.09l-8.71,4.01c-2.9,1.38-5.93,2.72-8.75,4.26l-8.66,4.6-4.37,2.37c-1.46,.8-2.84,1.66-4.27,2.5l15.84,9.98-2.14,3.48-.53,.87-2,3.26c-.69,1.16-1.44,2.27-2.07,3.47l-3.91,7.07-1.95,3.54c-.66,1.17-1.3,2.36-1.89,3.57l-3.6,7.24c-2.48,4.78-4.55,9.77-6.75,14.69-8.52,19.81-15.24,40.44-19.7,61.61C2.36,222.28,.02,243.94,.01,265.66v4.07s-.01,2.04-.01,2.04l.09,2.04,.36,8.15,.19,4.07,.38,4.06,.76,8.13,.2,2.03,.29,2.02,.58,4.05,1.18,8.09,1.56,8.03c.55,2.67,.98,5.37,1.69,8.01,4.96,21.27,12.43,42.02,22.4,61.57l.91,1.85,1,1.8,2,3.6,4.03,7.18,6.19,9.78,1.12,1.76c.78,1.15,1.61,2.27,2.41,3.4l29.61-20.61c-.69-.97-1.4-1.93-2.07-2.91l-.95-1.51-5.32-8.39-3.46-6.17-1.73-3.09-.86-1.54-.77-1.59c-8.57-16.83-15.04-34.75-19.36-53.24-.63-2.29-.99-4.64-1.47-6.97l-1.37-6.99-1.02-7.06-.51-3.53-.26-1.77-.17-1.78-.66-7.12-.34-3.56-.16-3.57-.32-7.15-.08-1.79v-1.79s.02-3.58,.02-3.58c0-19.1,2.06-38.25,6.01-57.04,3.95-18.79,9.94-37.17,17.55-54.86,1.97-4.39,3.8-8.85,6.03-13.13l3.21-6.48c.52-1.09,1.09-2.15,1.69-3.2l1.75-3.16,3.5-6.33c.56-1.07,1.24-2.07,1.86-3.1l1.79-2.92,.48-.78,1.91-3.12,15.83,9.98Z"/>
          <path class="cls-10" d="M62.58,440.08l-5.55-6.9-2.77-3.46c-.9-1.17-1.73-2.39-2.6-3.58l27.87-20.47c.75,1.03,1.46,2.09,2.24,3.1l2.4,2.98,4.79,5.96-26.37,22.37Z"/>
          <path class="cls-10" d="M73.05,451.66c-2.32-2.45-4.54-4.99-6.81-7.48l25.88-22.94c1.96,2.15,3.87,4.35,5.87,6.47l-24.94,23.95Z"/>
        </g>
        <polygon class="cls-10" points="82.94 461.34 78.09 456.55 102.36 431.92 106.54 436.07 82.94 461.34"/>
      </g>
      <g>
        <g>
          <path class="cls-10" d="M495.37,391.03l.06,2.12-.02,2.09-.05,4.22-.18,8.59c-.28,5.71-.78,11.45-1.29,17.37-.68,5.79-1.53,11.64-2.42,17.64-1.08,5.84-2.28,11.78-3.57,17.83,5.76-1.87,11.64-3.84,17.59-5.95,5.76-2.26,11.65-4.61,17.56-7.14,5.73-2.66,11.63-5.39,17.45-8.35l8.62-4.67,4.35-2.41,2.19-1.22,2.12-1.28-15.89-9.89,2.1-3.51,.52-.88,4.32-7.23c1.4-2.52,2.74-5.08,4.11-7.61,1.35-2.55,2.77-5.06,4.04-7.65l3.73-7.81c2.59-5.16,4.72-10.53,6.98-15.84l1.68-3.99,1.5-4.06,2.99-8.13c1.05-2.69,1.82-5.48,2.71-8.23l2.6-8.26c.79-2.78,1.5-5.58,2.25-8.37l1.11-4.19c.36-1.4,.76-2.79,1.04-4.21l1.83-8.48,.91-4.24c.31-1.41,.5-2.85,.75-4.27,4.05-22.77,5.71-45.99,4.82-69.15l-.05-2.17c-.03-.72-.1-1.45-.14-2.17l-.31-4.34-.63-8.67-1.04-8.64c-.38-2.88-.62-5.77-1.17-8.62l-1.46-8.58c-.26-1.43-.46-2.87-.77-4.29l-.94-4.25-1.89-8.51c-.66-2.83-1.5-5.61-2.25-8.42l-1.16-4.2c-.39-1.4-.74-2.81-1.22-4.18l-2.73-8.29-1.37-4.14c-.49-1.37-1.04-2.72-1.55-4.08l-3.15-8.14-.79-2.03-.89-2-1.78-3.99-3.58-7.97-3.97-7.78c-1.35-2.58-2.59-5.22-4.1-7.71l-4.38-7.57c-.75-1.25-1.43-2.54-2.23-3.76l-2.38-3.67-4.78-7.32c-.39-.61-.8-1.22-1.24-1.8l-.63-.87-.15-.21-1.22-1.67-2.44-3.34-29.06,21.37,2.13,2.91,1.07,1.46,.13,.18,.55,.76c.39,.51,.74,1.04,1.08,1.57l4.17,6.4,2.09,3.2c.7,1.06,1.29,2.2,1.94,3.29l3.83,6.61c1.34,2.17,2.41,4.49,3.59,6.75l3.48,6.8,3.13,6.98,1.56,3.49,.78,1.75,.69,1.79,2.76,7.14c.45,1.19,.94,2.37,1.37,3.57l1.19,3.64,2.4,7.27c.43,1.2,.73,2.45,1.07,3.68l1.01,3.7c.65,2.47,1.41,4.91,1.99,7.4l1.66,7.49,.83,3.74c.28,1.25,.44,2.52,.67,3.78l1.29,7.57c.49,2.51,.69,5.07,1.03,7.61l.93,7.62,.55,7.67,.28,3.83c.04,.64,.1,1.28,.13,1.92l.04,1.92c.78,20.49-.68,41.09-4.28,61.33-.23,1.26-.39,2.54-.66,3.8l-.81,3.77-1.62,7.54c-.24,1.26-.6,2.5-.93,3.74l-.99,3.73c-.67,2.48-1.29,4.98-1.99,7.45l-2.32,7.36c-.8,2.44-1.47,4.93-2.42,7.33l-2.66,7.25-1.33,3.62-1.5,3.56c-2.02,4.74-3.9,9.53-6.23,14.13l-3.33,6.97c-1.14,2.31-2.42,4.55-3.62,6.83-1.23,2.27-2.42,4.55-3.67,6.8l-3.87,6.46-.47,.78-1.87,3.14-15.89-9.89Z"/>
          <path class="cls-10" d="M519.97,52.26c1.01,1.06,1.93,2.2,2.85,3.34l2.78,3.4c1.84,2.27,3.72,4.53,5.53,6.82l-27.4,21.1c-1.6-2.02-3.25-3.99-4.87-5.99l-2.44-2.99c-.81-1-1.62-2-2.51-2.93l26.05-22.75Z"/>
          <path class="cls-10" d="M509.48,40.88c1.21,1.15,2.32,2.4,3.45,3.64l3.38,3.71-25.61,23.24-2.97-3.26c-.99-1.09-1.96-2.2-3.03-3.2l24.78-24.12Z"/>
        </g>
        <polygon class="cls-10" points="499.65 31.3 504.47 36.04 480.28 60.75 476.05 56.57 499.65 31.3"/>
      </g>
      <g>
        <g>
          <polygon class="cls-10" points="214.82 334.02 201.83 317.77 188.83 301.53 175.84 317.77 162.85 334.02 176.08 334.02 176.08 349.82 201.59 349.82 201.59 334.02 214.82 334.02"/>
          <rect class="cls-10" x="176.61" y="352.85" width="24.45" height="8.42"/>
          <rect class="cls-10" x="176.61" y="363.88" width="24.45" height="4.81"/>
        </g>
        <rect class="cls-10" x="176.66" y="372.03" width="24.45" height="3.24"/>
      </g>
      <g>
        <g>
          <polygon class="cls-10" points="411.89 130.83 398.9 114.59 385.9 98.34 372.91 114.59 359.91 130.83 373.15 130.83 373.15 146.63 398.66 146.63 398.66 130.83 411.89 130.83"/>
          <rect class="cls-10" x="373.68" y="149.66" width="24.45" height="8.42"/>
          <rect class="cls-10" x="373.68" y="160.69" width="24.45" height="4.81"/>
        </g>
        <rect class="cls-10" x="373.73" y="168.85" width="24.45" height="3.24"/>
      </g>
      <text class="cls-1" transform="translate(219.88 30.26)"><tspan x="0" y="0">Deep Ea</tspan><tspan class="cls-12" x="108.42" y="0">r</tspan><tspan x="120.45" y="0">th </tspan><tspan class="cls-17" x="-3.64" y="36">C</tspan><tspan x="13.63" y="36">ommuni</tspan><tspan class="cls-26" x="125.83" y="36">t</tspan><tspan x="136.99" y="36">y </tspan></text>
      <text class="cls-1" transform="translate(145.36 231.19)"><tspan x="0" y="0">D</tspan><tspan class="cls-21" x="20.88" y="0">a</tspan><tspan x="36.48" y="0">taset </tspan><tspan class="cls-25" x="2.87" y="36">G</tspan><tspan class="cls-21" x="23.42" y="36">r</tspan><tspan x="34.57" y="36">oups</tspan></text>
      <text class="cls-1" transform="translate(345.41 229.74)"><tspan class="cls-25" x="0" y="0">Mo</tspan><tspan x="42.87" y="0">del </tspan><tspan class="cls-25" x="-6.31" y="36">G</tspan><tspan class="cls-21" x="14.24" y="36">r</tspan><tspan x="25.39" y="36">oups</tspan></text>
      <text class="cls-2" transform="translate(151.49 460.9)"><tspan x="0" y="0">REM3D </tspan><tspan class="cls-18" x="113.06" y="0">C</tspan><tspan x="132.06" y="0">onso</tspan><tspan class="cls-13" x="203.81" y="0">r</tspan><tspan x="217.04" y="0">tium</tspan></text>
      <text class="cls-4" transform="translate(232.97 397.45) rotate(-90)"><tspan class="cls-27" x="0" y="0">Q</tspan><tspan x="15.16" y="0">uestions</tspan><tspan class="cls-11" x="3.03" y="15">P</tspan><tspan class="cls-22" x="15.05" y="15">r</tspan><tspan x="22.86" y="15">oblems</tspan></text>
      <text></text>
      <text class="cls-4" transform="translate(337.92 318.55) rotate(90)"><tspan class="cls-20" x="0" y="0">A</tspan><tspan x="13.48" y="0">dvi</tspan><tspan class="cls-23" x="42.88" y="0">c</tspan><tspan x="52.12" y="0">e</tspan><tspan x="-13.06" y="15">Decisions</tspan></text>
      <text class="cls-3" transform="translate(89.95 372.82) rotate(-90)"><tspan x="0" y="0">Request</tspan><tspan class="cls-6" x="87.07" y="0">s</tspan><tspan x="97.25" y="0">,</tspan><tspan class="cls-16" x="103.49" y="0"> </tspan><tspan class="cls-14" x="107.45" y="0">W</tspan><tspan x="127.75" y="0">o</tspan><tspan class="cls-7" x="141.6" y="0">r</tspan><tspan x="150.65" y="0">kshops</tspan></text>
      <text class="cls-3" transform="translate(502.38 143.61) rotate(90)"><tspan class="cls-19" x="0" y="0">C</tspan><tspan x="13.82" y="0">o</tspan><tspan class="cls-8" x="27.67" y="0">n</tspan><tspan x="41.59" y="0">tribution</tspan><tspan class="cls-6" x="137.73" y="0">s</tspan><tspan x="147.91" y="0">, </tspan><tspan class="cls-15" x="159" y="0">I</tspan><tspan x="165.91" y="0">nput </tspan></text>
      <text class="cls-4" transform="translate(222.79 89.07) rotate(90)"><tspan class="cls-24" x="0" y="0">M</tspan><tspan x="17.83" y="0">em</tspan><tspan class="cls-5" x="46.98" y="0">b</tspan><tspan x="59.6" y="0">ers</tspan></text>
      <text class="cls-4" transform="translate(327.66 182.51) rotate(-90)"><tspan class="cls-27" x="0" y="0">Q</tspan><tspan x="15.16" y="0">uestions</tspan><tspan x="13.55" y="15">Results</tspan></text>
    </g>
  </g>
</svg>